{
  "accessors": [
    {
      "bufferView": 2,
      "componentType": 5126,
      "count": 276,
      "max": [
        0.5555999875068665,
        -0.6967999935150146,
        6.979599952697754
      ],
      "min": [
        -0.2662000060081482,
        -1.5947999954223633,
        5.879300117492676
      ],
      "type": "VEC3"
    },
    {
      "bufferView": 2,
      "byteOffset": 3312,
      "componentType": 5126,
      "count": 276,
      "max": [
        0.9873259663581848,
        0.99970942735672,
        0.9829549789428711
      ],
      "min": [
        -0.9844653606414795,
        -0.9544166326522827,
        -0.9591192007064819
      ],
      "type": "VEC3"
    },
    {
      "bufferView": 1,
      "componentType": 5126,
      "count": 276,
      "max": [
        0.7724999785423279,
        0.9883999824523926
      ],
      "min": [
        0.5013999938964844,
        0.5422000288963318
      ],
      "type": "VEC2"
    },
    {
      "bufferView": 0,
      "componentType": 5125,
      "count": 1194,
      "type": "SCALAR"
    },
    {
      "bufferView": 2,
      "byteOffset": 6624,
      "componentType": 5126,
      "count": 26,
      "max": [
        1.5774999856948853,
        -0.836899995803833,
        6.56279993057251
      ],
      "min": [
        0.859499990940094,
        -1.172700047492981,
        6.023399829864502
      ],
      "type": "VEC3"
    },
    {
      "bufferView": 2,
      "byteOffset": 6936,
      "componentType": 5126,
      "count": 26,
      "max": [
        0.5177933573722839,
        -0.42288926243782043,
        -0.011300220154225826
      ],
      "min": [
        -0.8478784561157227,
        -0.9939467906951904,
        -0.33499574661254883
      ],
      "type": "VEC3"
    },
    {
      "bufferView": 1,
      "byteOffset": 2208,
      "componentType": 5126,
      "count": 26,
      "max": [
        0.9320999979972839,
        0.5282999873161316
      ],
      "min": [
        0.5199999809265137,
        0.00989999994635582
      ],
      "type": "VEC2"
    },
    {
      "bufferView": 0,
      "byteOffset": 4776,
      "componentType": 5125,
      "count": 72,
      "type": "SCALAR"
    },
    {
      "bufferView": 2,
      "byteOffset": 7248,
      "componentType": 5126,
      "count": 1166,
      "max": [
        0.20229999721050262,
        -0.007000000216066837,
        7.332399845123291
      ],
      "min": [
        -0.8730000257492065,
        -2.328000068664551,
        4.832300186157227
      ],
      "type": "VEC3"
    },
    {
      "bufferView": 2,
      "byteOffset": 21240,
      "componentType": 5126,
      "count": 1166,
      "max": [
        0.9991369247436523,
        0.9999476671218872,
        0.9950565099716187
      ],
      "min": [
        -0.9999854564666748,
        -0.9999364614486694,
        -0.9946820139884949
      ],
      "type": "VEC3"
    },
    {
      "bufferView": 1,
      "byteOffset": 2416,
      "componentType": 5126,
      "count": 1166,
      "max": [
        1.4967000484466553,
        1.7694000005722046
      ],
      "min": [
        -1.9354000091552734,
        -0.6240000128746033
      ],
      "type": "VEC2"
    },
    {
      "bufferView": 0,
      "byteOffset": 5064,
      "componentType": 5125,
      "count": 3660,
      "type": "SCALAR"
    },
    {
      "bufferView": 2,
      "byteOffset": 35232,
      "componentType": 5126,
      "count": 679,
      "max": [
        2.3276000022888184,
        0.6302000284194946,
        6.570300102233887
      ],
      "min": [
        -0.5185999870300293,
        -1.3848999738693237,
        4.537499904632568
      ],
      "type": "VEC3"
    },
    {
      "bufferView": 2,
      "byteOffset": 43380,
      "componentType": 5126,
      "count": 679,
      "max": [
        0.948660671710968,
        0.8978013396263123,
        0.9937177896499634
      ],
      "min": [
        -0.9860559105873108,
        -0.9675155282020569,
        -0.7376461625099182
      ],
      "type": "VEC3"
    },
    {
      "bufferView": 1,
      "byteOffset": 11744,
      "componentType": 5126,
      "count": 679,
      "max": [
        0.4982999861240387,
        1.000100016593933
      ],
      "min": [
        -0.5720999836921692,
        0.0625
      ],
      "type": "VEC2"
    },
    {
      "bufferView": 0,
      "byteOffset": 19704,
      "componentType": 5125,
      "count": 2010,
      "type": "SCALAR"
    },
    {
      "bufferView": 2,
      "byteOffset": 51528,
      "componentType": 5126,
      "count": 2538,
      "max": [
        1.9378000497817993,
        0.0828000009059906,
        7.165500164031982
      ],
      "min": [
        0.7232999801635742,
        -1.1967999935150146,
        5.795000076293945
      ],
      "type": "VEC3"
    },
    {
      "bufferView": 2,
      "byteOffset": 81984,
      "componentType": 5126,
      "count": 2538,
      "max": [
        0.9989441633224487,
        0.9990878701210022,
        0.9995893836021423
      ],
      "min": [
        -0.9985156059265137,
        -0.9991292357444763,
        -0.9984644055366516
      ],
      "type": "VEC3"
    },
    {
      "bufferView": 1,
      "byteOffset": 17176,
      "componentType": 5126,
      "count": 2538,
      "max": [
        0.9244999885559082,
        0.9980000257492065
      ],
      "min": [
        0.13079999387264252,
        0.46070000529289246
      ],
      "type": "VEC2"
    },
    {
      "bufferView": 0,
      "byteOffset": 27744,
      "componentType": 5125,
      "count": 12618,
      "type": "SCALAR"
    },
    {
      "bufferView": 2,
      "byteOffset": 112440,
      "componentType": 5126,
      "count": 3074,
      "max": [
        2.9728000164031982,
        1.325700044631958,
        7.229400157928467
      ],
      "min": [
        -0.2282000035047531,
        -2.1777000427246094,
        5.287600040435791
      ],
      "type": "VEC3"
    },
    {
      "bufferView": 2,
      "byteOffset": 149328,
      "componentType": 5126,
      "count": 3074,
      "max": [
        0.9997135996818542,
        0.9999836683273315,
        0.9986473917961121
      ],
      "min": [
        -0.9988441467285156,
        -0.9998144507408142,
        -0.9998412728309631
      ],
      "type": "VEC3"
    },
    {
      "bufferView": 1,
      "byteOffset": 37480,
      "componentType": 5126,
      "count": 3074,
      "max": [
        0.6653000116348267,
        0.9958000183105469
      ],
      "min": [
        0.1315000057220459,
        0.7192000150680542
      ],
      "type": "VEC2"
    },
    {
      "bufferView": 0,
      "byteOffset": 78216,
      "componentType": 5125,
      "count": 13356,
      "type": "SCALAR"
    },
    {
      "bufferView": 2,
      "byteOffset": 186216,
      "componentType": 5126,
      "count": 18908,
      "max": [
        4.329500198364258,
        2.6821999549865723,
        6.64169979095459
      ],
      "min": [
        -1.79830002784729,
        -2.808500051498413,
        -0.0038999998942017555
      ],
      "type": "VEC3"
    },
    {
      "bufferView": 2,
      "byteOffset": 413112,
      "componentType": 5126,
      "count": 18908,
      "max": [
        0.9998469948768616,
        0.9997873902320862,
        0.9998745918273926
      ],
      "min": [
        -0.999980092048645,
        -0.9997969269752502,
        -0.9999216794967651
      ],
      "type": "VEC3"
    },
    {
      "bufferView": 1,
      "byteOffset": 62072,
      "componentType": 5126,
      "count": 18908,
      "max": [
        0.9969000220298767,
        0.9940000176429749
      ],
      "min": [
        0.004000000189989805,
        0.005200000014156103
      ],
      "type": "VEC2"
    },
    {
      "bufferView": 0,
      "byteOffset": 131640,
      "componentType": 5125,
      "count": 84006,
      "type": "SCALAR"
    }
  ],
  "asset": {
    "extras": {
      "author": "projectmgame (https://sketchfab.com/projectmgame)",
      "license": "CC-BY-4.0 (http://creativecommons.org/licenses/by/4.0/)",
      "source": "https://sketchfab.com/3d-models/light-suit-samus-84cea5887f374451ae2f090e6fea943d",
      "title": "Light Suit Samus"
    },
    "generator": "Sketchfab-12.66.0",
    "version": "2.0"
  },
  "bufferViews": [
    {
      "buffer": 0,
      "byteLength": 467664,
      "name": "floatBufferViews",
      "target": 34963
    },
    {
      "buffer": 0,
      "byteLength": 213336,
      "byteOffset": 467664,
      "byteStride": 8,
      "name": "floatBufferViews",
      "target": 34962
    },
    {
      "buffer": 0,
      "byteLength": 640008,
      "byteOffset": 681000,
      "byteStride": 12,
      "name": "floatBufferViews",
      "target": 34962
    }
  ],
  "buffers": [
    {
      "byteLength": 1321008,
      "uri": "scene.bin"
    }
  ],
  "images": [
    {
      "uri": "textures/Glove_baseColor.png"
    },
    {
      "uri": "textures/Main_baseColor.png"
    }
  ],
  "materials": [
    {
      "doubleSided": true,
      "name": "Glove",
      "pbrMetallicRoughness": {
        "baseColorTexture": {
          "index": 0
        },
        "metallicFactor": 0.0,
        "roughnessFactor": 0.6
      }
    },
    {
      "doubleSided": true,
      "name": "material",
      "pbrMetallicRoughness": {
        "baseColorTexture": {
          "index": 0
        },
        "metallicFactor": 0.0,
        "roughnessFactor": 0.6
      }
    },
    {
      "doubleSided": true,
      "emissiveFactor": [
        1.0,
        1.0,
        1.0
      ],
      "emissiveTexture": {
        "index": 0
      },
      "name": "Light",
      "pbrMetallicRoughness": {
        "baseColorTexture": {
          "index": 0
        },
        "metallicFactor": 0.0,
        "roughnessFactor": 0.6
      }
    },
    {
      "doubleSided": true,
      "name": "Main",
      "pbrMetallicRoughness": {
        "baseColorTexture": {
          "index": 1
        },
        "metallicFactor": 0.0,
        "roughnessFactor": 0.6
      }
    },
    {
      "doubleSided": true,
      "emissiveFactor": [
        0.65,
        0.65,
        0.65
      ],
      "emissiveTexture": {
        "index": 0
      },
      "name": "Visor",
      "pbrMetallicRoughness": {
        "baseColorTexture": {
          "index": 0
        },
        "metallicFactor": 0.0,
        "roughnessFactor": 0.6
      }
    }
  ],
  "meshes": [
    {
      "name": "Object_0",
      "primitives": [
        {
          "attributes": {
            "NORMAL": 1,
            "POSITION": 0,
            "TEXCOORD_0": 2
          },
          "indices": 3,
          "material": 0,
          "mode": 4
        }
      ]
    },
    {
      "name": "Object_1",
      "primitives": [
        {
          "attributes": {
            "NORMAL": 5,
            "POSITION": 4,
            "TEXCOORD_0": 6
          },
          "indices": 7,
          "material": 4,
          "mode": 4
        }
      ]
    },
    {
      "name": "Object_2",
      "primitives": [
        {
          "attributes": {
            "NORMAL": 9,
            "POSITION": 8,
            "TEXCOORD_0": 10
          },
          "indices": 11,
          "material": 1,
          "mode": 4
        }
      ]
    },
    {
      "name": "Object_3",
      "primitives": [
        {
          "attributes": {
            "NORMAL": 13,
            "POSITION": 12,
            "TEXCOORD_0": 14
          },
          "indices": 15,
          "material": 2,
          "mode": 4
        }
      ]
    },
    {
      "name": "Object_4",
      "primitives": [
        {
          "attributes": {
            "NORMAL": 17,
            "POSITION": 16,
            "TEXCOORD_0": 18
          },
          "indices": 19,
          "material": 3,
          "mode": 4
        }
      ]
    },
    {
      "name": "Object_5",
      "primitives": [
        {
          "attributes": {
            "NORMAL": 21,
            "POSITION": 20,
            "TEXCOORD_0": 22
          },
          "indices": 23,
          "material": 3,
          "mode": 4
        }
      ]
    },
    {
      "name": "Object_6",
      "primitives": [
        {
          "attributes": {
            "NORMAL": 25,
            "POSITION": 24,
            "TEXCOORD_0": 26
          },
          "indices": 27,
          "material": 3,
          "mode": 4
        }
      ]
    }
  ],
  "nodes": [
    {
      "children": [
        1
      ],
      "matrix": [
        1.0,
        0.0,
        0.0,
        0.0,
        0.0,
        2.220446049250313e-16,
        -1.0,
        0.0,
        0.0,
        1.0,
        2.220446049250313e-16,
        0.0,
        0.0,
        0.0,
        0.0,
        1.0
      ],
      "name": "Sketchfab_model"
    },
    {
      "children": [
        2,
        3,
        4,
        5,
        6,
        7,
        8
      ],
      "name": "posed.obj.cleaner"
    },
    {
      "mesh": 0,
      "name": "Object_2"
    },
    {
      "mesh": 1,
      "name": "Object_3"
    },
    {
      "mesh": 2,
      "name": "Object_4"
    },
    {
      "mesh": 3,
      "name": "Object_5"
    },
    {
      "mesh": 4,
      "name": "Object_6"
    },
    {
      "mesh": 5,
      "name": "Object_7"
    },
    {
      "mesh": 6,
      "name": "Object_8"
    }
  ],
  "samplers": [
    {
      "magFilter": 9729,
      "minFilter": 9987,
      "wrapS": 10497,
      "wrapT": 10497
    }
  ],
  "scene": 0,
  "scenes": [
    {
      "name": "Sketchfab_Scene",
      "nodes": [
        0
      ]
    }
  ],
  "textures": [
    {
      "sampler": 0,
      "source": 0
    },
    {
      "sampler": 0,
      "source": 1
    }
  ]
}
